<svg width="848" height="160" viewBox="0 0 848 160" fill="none" xmlns="http://www.w3.org/2000/svg">
<path d="M847.362 122.983H832.358L818.83 105.15L806.286 122.983H793.865L812.681 97.1566L793.25 71.5762H808.5L821.659 88.9167L832.727 71.5762H845.149L827.316 96.5416L847.362 122.983Z" fill="black"/>
<path d="M761.684 124.213C755.781 124.213 750.698 123.065 746.434 120.769C742.171 118.391 738.892 115.153 736.596 111.053C734.3 106.872 733.152 102.158 733.152 96.9105C733.152 91.8272 734.423 87.2358 736.965 83.1364C739.588 78.955 743.073 75.6345 747.418 73.1748C751.764 70.7152 756.601 69.4854 761.93 69.4854C768.817 69.4854 774.515 71.4941 779.025 75.5115C783.616 79.4469 786.691 85.0222 788.248 92.2371L748.033 106.134C749.509 108.512 751.436 110.357 753.813 111.668C756.273 112.98 758.979 113.636 761.93 113.636C764.144 113.636 766.276 113.267 768.325 112.529C770.375 111.709 772.302 110.644 774.106 109.332L779.763 118.555C777.139 120.277 774.229 121.671 771.031 122.737C767.915 123.721 764.8 124.213 761.684 124.213ZM745.574 98.7552L774.229 88.3017C773.163 85.924 771.564 83.8333 769.432 82.0296C767.382 80.2258 764.595 79.324 761.069 79.324C756.478 79.324 752.707 80.9227 749.755 84.1203C746.885 87.2358 745.451 91.2533 745.451 96.1726C745.451 97.0744 745.492 97.9353 745.574 98.7552Z" fill="black"/>
<path d="M685.11 124.212C680.272 124.212 675.927 123.105 672.074 120.892C668.22 118.596 665.187 115.357 662.973 111.176C660.759 106.995 659.652 102.116 659.652 96.541C659.652 90.8018 660.841 85.9235 663.219 81.9061C665.596 77.8887 668.794 74.8141 672.811 72.6824C676.911 70.5507 681.502 69.4849 686.586 69.4849C690.357 69.4849 693.964 70.2227 697.408 71.6985C700.933 73.1743 703.721 75.265 705.771 77.9707V27.4248H718.192V122.982H705.648V115.48C703.188 118.022 700.196 120.113 696.67 121.752C693.227 123.392 689.373 124.212 685.11 124.212ZM688.922 113.759C693.268 113.759 696.875 112.652 699.745 110.438C702.696 108.142 704.664 105.109 705.648 101.337V91.1298C704.746 87.6863 702.737 84.8577 699.622 82.644C696.588 80.4303 693.022 79.3235 688.922 79.3235C685.971 79.3235 683.224 80.0614 680.682 81.5371C678.141 82.9309 676.091 84.9397 674.533 87.5633C673.057 90.1049 672.32 93.0565 672.32 96.418C672.32 99.6156 673.057 102.526 674.533 105.15C676.091 107.773 678.141 109.864 680.682 111.422C683.224 112.98 685.971 113.759 688.922 113.759Z" fill="black"/>
<path d="M592.156 96.7875C592.156 91.6222 593.386 86.9899 595.846 82.8905C598.305 78.709 601.708 75.4295 606.053 73.0518C610.399 70.6742 615.359 69.4854 620.934 69.4854C626.591 69.4854 631.511 70.6742 635.692 73.0518C639.955 75.4295 643.235 78.709 645.531 82.8905C647.908 86.9899 649.097 91.6222 649.097 96.7875C649.097 101.953 647.908 106.626 645.531 110.808C643.153 114.907 639.832 118.186 635.569 120.646C631.388 123.024 626.427 124.213 620.688 124.213C615.277 124.213 610.399 123.106 606.053 120.892C601.79 118.678 598.387 115.522 595.846 111.422C593.386 107.241 592.156 102.363 592.156 96.7875ZM604.7 96.9105C604.7 100.108 605.397 103.019 606.791 105.642C608.185 108.184 610.071 110.234 612.448 111.791C614.908 113.267 617.614 114.005 620.565 114.005C625.239 114.005 629.051 112.365 632.003 109.086C635.036 105.806 636.553 101.748 636.553 96.9105C636.553 92.0732 635.036 88.0147 632.003 84.7352C629.051 81.3737 625.239 79.6929 620.565 79.6929C617.532 79.6929 614.826 80.4718 612.448 82.0296C610.071 83.5874 608.185 85.6781 606.791 88.3017C605.397 90.9253 604.7 93.7949 604.7 96.9105Z" fill="black"/>
<path d="M485.199 122.983V30.8691H485.322L529.35 93.4673L574.116 30.8691H574.362V122.983H561.571V67.6409L529.35 113.39H529.104L497.62 69.6087V122.983H485.199Z" fill="black"/>
<path d="M424.621 71.5761L425.482 81.1688C427.204 77.6433 429.868 74.8557 433.476 72.8059C437.083 70.6742 441.265 69.6084 446.02 69.6084C450.857 69.6084 454.834 71.0432 457.949 73.9128C461.065 76.7004 462.664 80.3899 462.746 84.9812V122.983H450.324V89.2856C450.242 86.662 449.464 84.5303 447.988 82.8905C446.512 81.1688 444.216 80.2669 441.101 80.1849C436.755 80.1849 433.107 81.9886 430.155 85.5961C427.286 89.2036 425.851 93.836 425.851 99.4932V122.983H413.43V71.5761H424.621Z" fill="black"/>
<path d="M372.923 124.213C367.019 124.213 361.936 123.065 357.673 120.769C353.409 118.391 350.13 115.153 347.834 111.053C345.538 106.872 344.391 102.158 344.391 96.9105C344.391 91.8272 345.661 87.2358 348.203 83.1364C350.827 78.955 354.311 75.6345 358.657 73.1748C363.002 70.7152 367.839 69.4854 373.169 69.4854C380.056 69.4854 385.754 71.4941 390.263 75.5115C394.854 79.4469 397.929 85.0222 399.487 92.2371L359.272 106.134C360.747 108.512 362.674 110.357 365.052 111.668C367.511 112.98 370.217 113.636 373.169 113.636C375.382 113.636 377.514 113.267 379.564 112.529C381.613 111.709 383.54 110.644 385.344 109.332L391.001 118.555C388.377 120.277 385.467 121.671 382.269 122.737C379.154 123.721 376.038 124.213 372.923 124.213ZM356.812 98.7552L385.467 88.3017C384.401 85.924 382.802 83.8333 380.67 82.0296C378.621 80.2258 375.833 79.324 372.308 79.324C367.716 79.324 363.945 80.9227 360.993 84.1203C358.124 87.2358 356.689 91.2533 356.689 96.1726C356.689 97.0744 356.73 97.9353 356.812 98.7552Z" fill="black"/>
<path d="M306.062 124.213C302.455 124.213 299.011 123.475 295.732 121.999C292.452 120.523 289.787 118.432 287.738 115.727V147.702H275.316V70.7152H286.016L287.123 79.078C289.582 76.2904 292.616 73.9947 296.223 72.191C299.831 70.3872 303.889 69.4854 308.399 69.4854C313.236 69.4854 317.581 70.6332 321.435 72.9289C325.288 75.2245 328.322 78.4631 330.536 82.6445C332.749 86.7439 333.856 91.5812 333.856 97.1564C333.856 102.732 332.626 107.569 330.167 111.668C327.789 115.686 324.509 118.801 320.328 121.015C316.147 123.147 311.391 124.213 306.062 124.213ZM303.602 114.374C306.8 114.374 309.711 113.636 312.334 112.16C315.04 110.685 317.171 108.676 318.729 106.134C320.369 103.511 321.189 100.559 321.189 97.2794C321.189 93.9179 320.451 90.9253 318.975 88.3017C317.499 85.6781 315.491 83.6284 312.949 82.1526C310.407 80.6768 307.579 79.9389 304.463 79.9389C300.2 79.9389 296.592 81.0867 293.641 83.3824C290.771 85.6781 288.803 88.7116 287.738 92.4831V101.707C288.394 105.396 290.197 108.43 293.149 110.808C296.1 113.185 299.585 114.374 303.602 114.374Z" fill="black"/>
<path d="M167.406 78.4635C167.406 72.3143 168.554 66.4932 170.85 60.9999C173.227 55.5067 176.507 50.6694 180.688 46.488C184.87 42.2246 189.707 38.9041 195.2 36.5264C200.694 34.0667 206.556 32.8369 212.787 32.8369C219.018 32.8369 224.88 34.0667 230.373 36.5264C235.948 38.9041 240.827 42.2246 245.008 46.488C249.272 50.6694 252.592 55.5067 254.97 60.9999C257.347 66.4932 258.536 72.3143 258.536 78.4635C258.536 84.7766 257.347 90.6797 254.97 96.173C252.592 101.666 249.272 106.503 245.008 110.685C240.827 114.866 235.948 118.146 230.373 120.524C224.88 122.819 219.018 123.967 212.787 123.967C206.556 123.967 200.694 122.819 195.2 120.524C189.707 118.146 184.87 114.907 180.688 110.808C176.507 106.708 173.227 101.912 170.85 96.4189C168.554 90.8437 167.406 84.8586 167.406 78.4635ZM180.688 78.5864C180.688 84.6536 182.123 90.1878 184.993 95.1891C187.862 100.19 191.757 104.167 196.676 107.118C201.595 110.07 207.089 111.546 213.156 111.546C219.141 111.546 224.552 110.07 229.389 107.118C234.227 104.167 238.08 100.19 240.95 95.1891C243.819 90.1878 245.254 84.6126 245.254 78.4635C245.254 72.3143 243.778 66.7391 240.827 61.7378C237.957 56.6545 234.063 52.6371 229.143 49.6855C224.306 46.7339 218.895 45.2582 212.91 45.2582C206.843 45.2582 201.349 46.7749 196.43 49.8085C191.593 52.7601 187.739 56.7775 184.87 61.8608C182.082 66.8621 180.688 72.4373 180.688 78.5864Z" fill="black"/>
<path d="M118.951 34.131C101.665 34.131 85.5595 39.2693 72.0287 48.1265C66.7329 51.5931 59.998 47.702 63.227 42.258C70.7464 29.5799 84.5705 21.0811 100.38 21.0811C108.212 21.0811 115.558 23.1672 121.89 26.8143C125.74 29.0313 123.393 34.131 118.951 34.131Z" fill="black"/>
<path d="M65.0884 18.5289C54.4963 32.1888 48.6876 48.0651 47.3956 64.1854C46.8899 70.4947 39.688 73.4326 37.3644 67.5449C31.9533 53.8338 33.7082 37.7013 43.3957 25.208C48.1954 19.0183 54.3451 14.492 61.1077 11.7223C65.2186 10.0387 67.8106 15.0183 65.0884 18.5289Z" fill="black"/>
<path d="M20.3955 52.138C24.9128 68.8227 34.0815 83.026 46.167 93.7719C50.8971 97.9777 48.9013 105.495 42.8026 103.801C28.6001 99.8565 16.7838 88.7338 12.6523 73.474C10.6054 65.9136 10.6995 58.2784 12.5648 51.2126C13.6988 46.9174 19.2345 47.85 20.3955 52.138Z" fill="black"/>
<path d="M17.4797 106.488C33.2728 113.514 50.0766 115.365 66.0394 112.773C72.2871 111.758 76.8589 118.051 71.6959 121.712C59.6724 130.239 43.5872 132.385 29.143 125.959C21.9866 122.776 16.1234 117.884 11.8198 111.978C9.20377 108.387 13.4209 104.682 17.4797 106.488Z" fill="black"/>
<path d="M57.4117 142.465C72.9912 134.977 85.2816 123.369 93.6403 109.525C96.9119 104.107 104.668 104.696 104.116 111.002C102.83 125.686 94.0517 139.334 79.8028 146.182C72.7432 149.575 65.2191 150.877 57.9316 150.333C53.5016 150.002 53.4078 144.389 57.4117 142.465Z" fill="black"/>
<path d="M111.905 135.337C116.14 118.579 115.105 101.705 109.833 86.4162C107.77 80.4324 113.192 74.8563 117.679 79.3207C128.128 89.7173 132.981 105.202 129.107 120.53C127.188 128.124 123.366 134.734 118.278 139.98C115.186 143.169 110.816 139.644 111.905 135.337Z" fill="black"/>
<path d="M139.763 87.4054C129.51 73.4888 115.821 63.5696 100.664 57.9294C94.7321 55.7218 93.8702 47.9916 100.168 47.3622C114.836 45.8964 129.878 51.9854 139.254 64.7135C143.9 71.0195 146.577 78.1707 147.397 85.4324C147.896 89.8467 142.398 90.982 139.763 87.4054Z" fill="black"/>
</svg>
